<?xml version="1.0" encoding="utf-8"?>
<!-- Generator: Adobe Illustrator 19.0.0, SVG Export Plug-In . SVG Version: 6.00 Build 0)  -->
<svg version="1.1" id="Capa_1" xmlns="http://www.w3.org/2000/svg" xmlns:xlink="http://www.w3.org/1999/xlink" x="0px" y="0px"
	 viewBox="-49 141 512 512" style="enable-background:new -49 141 512 512;" xml:space="preserve">
<style type="text/css">
	.st0{fill:#FF9F6B;}
</style>
<g>
	<path class="st0" d="M406.5,376.1l-64.1-70c-7.5-8.2-18.1-12.8-29.2-12.8H100.9c-11.1,0-21.7,4.7-29.2,12.8l-64.1,70
		c-10.8,11.8-11.3,29.9-1.3,42.3l184.2,226.7c4.1,5,10.1,7.9,16.5,7.9s12.5-2.9,16.5-7.9l184.2-226.7
		C417.8,406.1,417.2,387.9,406.5,376.1L406.5,376.1z M316.7,308.6l-17.1,50.1c-1.3,3.9,0.8,8.2,4.7,9.5c0.8,0.3,1.6,0.4,2.4,0.4
		c3.1,0,6-2,7.1-5.1l16.4-48.2c0.3,0.3,0.7,0.7,1,1l64.1,70c0.9,1,1.7,2.1,2.3,3.3h-99.2L224,308.3h89.1
		C314.3,308.3,315.5,308.4,316.7,308.6z M278.1,389.5H135.9l71.1-77.6L278.1,389.5z M190,308.3l-67.6,73.7l-25-73.5
		c1.2-0.2,2.3-0.3,3.5-0.3H190z M82.7,316.3c0.3-0.4,0.7-0.7,1-1l25.3,74.3H16.3c0.6-1.2,1.4-2.3,2.3-3.3L82.7,316.3z M15.3,404.5
		H284l-77,225.8l-68.4-200.5c-1.3-3.9-5.6-6-9.5-4.7c-3.9,1.3-6,5.6-4.7,9.5l61.9,181.6L17.9,409C16.8,407.6,16,406.1,15.3,404.5z
		 M227.6,616.3l72.2-211.8h98.8c-0.6,1.6-1.5,3.1-2.6,4.4L227.6,616.3z"/>
	<path class="st0" d="M207,260.2c4.1,0,7.5-3.4,7.5-7.5V148.5c0-4.1-3.4-7.5-7.5-7.5s-7.5,3.4-7.5,7.5v104.2
		C199.5,256.9,202.9,260.2,207,260.2z"/>
	<path class="st0" d="M128.1,264.1c1.3,2.6,4,4.1,6.7,4.1c1.1,0,2.3-0.3,3.3-0.8c3.7-1.9,5.2-6.4,3.4-10.1l-32.1-64.1
		c-1.9-3.7-6.4-5.2-10.1-3.4s-5.2,6.4-3.4,10.1L128.1,264.1z"/>
	<path class="st0" d="M275.8,267.4c1.1,0.5,2.2,0.8,3.3,0.8c2.8,0,5.4-1.5,6.7-4.1l32.1-64.1c1.9-3.7,0.4-8.2-3.4-10.1
		c-3.7-1.9-8.2-0.4-10.1,3.4l-32.1,64.1C270.6,261.1,272.1,265.6,275.8,267.4L275.8,267.4z"/>
</g>
</svg>
