<?xml version="1.0" encoding="utf-8"?>
<!-- Generator: Adobe Illustrator 19.0.0, SVG Export Plug-In . SVG Version: 6.00 Build 0)  -->
<svg version="1.1" id="Capa_1" xmlns="http://www.w3.org/2000/svg" xmlns:xlink="http://www.w3.org/1999/xlink" x="0px" y="0px"
	 viewBox="-49 141 512 512" style="enable-background:new -49 141 512 512;" xml:space="preserve">
<style type="text/css">
	.st0{fill:#FF9F6B;}
</style>
<g>
	<path class="st0" d="M207,653c102.2,0,185.4-83.2,185.4-185.4c0-85.5-57.3-155.8-133.5-178c0-0.3,0.1-0.7,0.1-1v-11.4
		c0-2.4-0.6-4.8-1.6-6.8l14.4-16.9c2.7-3.2,2.3-7.9-0.8-10.6c-3.2-2.7-7.9-2.3-10.6,0.8l-15.3,17.9c-0.4,0-1.2-0.1-1.7-0.1h-11.5
		l14.7-55.7h46.2l-9.6,11.2c-2.7,3.2-2.3,7.9,0.8,10.6c3.2,2.7,7.9,2.3,10.6-0.8l11.5-13.5c6.9-8.1,7.9-20.7-0.1-29.1v0l-33.7-35.4
		c-4.7-5-11.4-7.8-18.3-7.8H160c-6.9,0-13.5,2.9-18.3,7.8L108,184.2c-7.9,8.3-7.1,20.9-0.1,29.1l48.6,57c-1,2.1-1.6,4.4-1.6,6.8
		v11.4c0,0.3,0,0.7,0.1,1c-76,22.2-133.5,92.4-133.5,178C21.6,569.8,104.8,653,207,653L207,653z M243.4,276.5c0.3,0,0.6,0.3,0.6,0.6
		v11.4c0,0.4-0.3,0.6-0.6,0.6h-72.8c-0.3,0-0.6-0.2-0.6-0.6v-11.4c0-0.4,0.3-0.6,0.6-0.6H243.4z M183,205.8h48l-14.7,55.7h-18.6
		L183,205.8z M291.5,190.8h-37.6l14.4-24.4L291.5,190.8z M254,156c0.9,0,1.9,0.1,2.7,0.4l-16.4,27.9L221.1,156H254z M226.6,190.8
		h-39.2l19.6-28.9L226.6,190.8z M160,156h32.8l-19.2,28.3l-16.4-27.9C158.2,156.1,159.1,156,160,156L160,156z M145.8,166.4
		l14.4,24.4h-37.6L145.8,166.4z M121.3,205.8h46.2l14.7,55.7h-11.5c-0.5,0-1.4,0.1-1.7,0.1L121.3,205.8z M163.9,302.7
		c1.9,0.9,4.4,1.5,6.7,1.5h72.8c2.3,0,4.7-0.6,6.7-1.5c75.2,19.5,127.4,86.9,127.4,164.9c0,94-76.5,170.4-170.4,170.4
		c-94,0-170.4-76.5-170.4-170.4C36.6,389.5,88.8,322.2,163.9,302.7z"/>
	<path class="st0" d="M92.5,161.9l-14-14c-2.9-2.9-7.7-2.9-10.6,0c-2.9,2.9-2.9,7.7,0,10.6l14,14c2.9,2.9,7.7,2.9,10.6,0
		C95.5,169.6,95.5,164.8,92.5,161.9z"/>
	<path class="st0" d="M320.6,236.3l14,14c2.9,2.9,7.7,2.9,10.6,0c2.9-2.9,2.9-7.7,0-10.6l-14-14c-2.9-2.9-7.7-2.9-10.6,0
		C317.7,228.6,317.7,233.3,320.6,236.3L320.6,236.3z"/>
	<path class="st0" d="M46.7,199.1c0,4.1,3.4,7.5,7.5,7.5H74c4.1,0,7.5-3.4,7.5-7.5c0-4.1-3.4-7.5-7.5-7.5H54.2
		C50,191.6,46.7,194.9,46.7,199.1z"/>
	<path class="st0" d="M331.6,199.1c0,4.1,3.4,7.5,7.5,7.5H359c4.1,0,7.5-3.4,7.5-7.5c0-4.1-3.4-7.5-7.5-7.5h-19.8
		C335,191.6,331.6,194.9,331.6,199.1z"/>
	<path class="st0" d="M81.9,225.7l-14,14c-2.9,2.9-2.9,7.7,0,10.6c2.9,2.9,7.7,2.9,10.6,0l14-14c2.9-2.9,2.9-7.7,0-10.6
		C89.6,222.7,84.8,222.7,81.9,225.7L81.9,225.7z"/>
	<path class="st0" d="M334.7,147.9l-14,14c-2.9,2.9-2.9,7.7,0,10.6c2.9,2.9,7.7,2.9,10.6,0l14-14c2.9-2.9,2.9-7.7,0-10.6
		C342.3,144.9,337.6,144.9,334.7,147.9z"/>
	<path class="st0" d="M207,615.1c76.9,0,140.3-58.9,146.9-134.5c0.4-4.1-2.7-7.8-6.8-8.1c-4.1-0.4-7.8,2.7-8.1,6.8
		C333,547,275.1,600.1,207,600.1c-73.1,0-132.5-59.4-132.5-132.5S133.9,335.1,207,335.1c65.3,0,120.3,46.7,130.8,111.1
		c0.7,4.1,4.5,6.9,8.6,6.2c4.1-0.7,6.9-4.5,6.2-8.6C341.1,373.4,280,320.1,207,320.1c-81.3,0-147.5,66.2-147.5,147.5
		C59.5,548.9,125.7,615.1,207,615.1L207,615.1z"/>
</g>
</svg>
